<svg xmlns="http://www.w3.org/2000/svg" viewBox="0 0 100 100">
  <defs>
    <linearGradient id="purpleBlue" x1="0%" y1="0%" x2="100%" y2="100%">
      <stop offset="0%" style="stop-color:#8b5cf6;stop-opacity:1" />
      <stop offset="50%" style="stop-color:#6366f1;stop-opacity:1" />
      <stop offset="100%" style="stop-color:#3b82f6;stop-opacity:1" />
    </linearGradient>
  </defs>
  
  <!-- Background circle with gradient -->
  <circle cx="50" cy="50" r="46" fill="url(#purpleBlue)" stroke="white" stroke-width="2"/>
  
  <!-- Musical notes -->
  <path d="M 35 65 L 35 30 L 45 28 L 45 63 Q 45 70 38 70 Q 32 70 32 65 Q 32 60 38 60 Q 43 60 45 63" fill="white"/>
  <path d="M 55 58 L 55 23 L 65 21 L 65 56 Q 65 63 58 63 Q 52 63 52 58 Q 52 53 58 53 Q 63 53 65 56" fill="white"/>
  <line x1="45" y1="28" x2="65" y2="21" stroke="white" stroke-width="2"/>
  <line x1="45" y1="38" x2="65" y2="31" stroke="white" stroke-width="2"/>
</svg>